<?xml version="1.0" encoding="UTF-8"?>
<svg width="32px" height="32px" viewBox="0 0 32 32" version="1.1" xmlns="http://www.w3.org/2000/svg" xmlns:xlink="http://www.w3.org/1999/xlink">
    <!-- Generator: Sketch 55 (78076) - https://sketchapp.com -->
    <title>logo</title>
    <desc>Created with Sketch.</desc>
    <g id="Web" stroke="none" stroke-width="1" fill="none" fill-rule="evenodd">
        <g id="Pedidos" transform="translate(-250.000000, -24.000000)" fill-rule="nonzero">
            <g id="logo" transform="translate(250.000000, 24.000000)">
                <path d="M1.82788824,29.1460701 C4.87050192,30.4479167 9.78124999,32 15.8967803,32 C19.3565341,32 24.6384944,31.5040246 30.1550663,29.1410985 C30.9663825,28.7935606 31.5736269,28.1119792 31.8214962,27.2710701 C32.0653409,26.4429451 31.9285038,25.5572916 31.4455492,24.8406723 C30.7378078,23.7913411 29.4629202,23.3417081 28.2795632,23.6685606 L16.4308712,0.265861721 C16.3484848,0.10274623 16.1813447,0 15.9985795,0 L15.9983428,0 C15.8158144,0 15.6486742,0.102509479 15.5660511,0.265388267 L3.69643704,23.6538826 C2.53465319,23.350941 1.27761008,23.7981475 0.57504737,24.8181818 C0.0776515394,25.5400095 -0.0681818182,26.4363163 0.174952679,27.2774621 C0.418560582,28.1195549 1.02083336,28.8006629 1.82788824,29.1460701 Z M15.9978693,1.55729168 L27.3744969,24.0274622 C17.5062737,28.347893 8.48884349,25.6321319 4.60576465,24.0046757 L15.9978693,1.55729168 Z M1.37334279,25.3683712 C1.74573862,24.828125 2.35061552,24.5269886 2.97135413,24.5269886 C3.23129731,24.5269886 3.49408141,24.5797822 3.7433712,24.6898674 C7.50213067,26.351089 17.413589,29.678267 28.2410038,24.7069128 C29.1025095,24.3120265 30.1112689,24.5961174 30.641572,25.3828125 C30.962358,25.8586647 31.0532671,26.4472064 30.8913352,26.997159 C30.7253788,27.5598958 30.3179451,28.0163352 29.7734375,28.2495264 C24.4079072,30.547822 19.265625,31.030303 15.8967803,31.030303 C9.94554924,31.030303 5.16879738,29.5208334 2.20951704,28.2544981 C1.67092805,28.023911 1.26893939,27.569839 1.10653411,27.008286 C0.944365527,26.4474432 1.04166667,25.8499053 1.37334279,25.3683712 Z" id="Shape" fill="#FFFFFF"></path>
                <path d="M22.2279829,24.7511837 C23.3681344,24.7511837 24.2956912,23.8236269 24.2956912,22.6834754 C24.2956912,21.5433239 23.3681344,20.6157671 22.2279829,20.6157671 C21.0878314,20.6157671 20.1602746,21.5433239 20.1602746,22.6834754 C20.1602746,23.8236269 21.0878314,24.7511837 22.2279829,24.7511837 Z M22.2279829,21.585464 C22.8333333,21.585464 23.3259943,22.078125 23.3259943,22.6834753 C23.3259943,23.2888257 22.8333333,23.7814867 22.2279829,23.7814867 C21.6226326,23.7814867 21.1299716,23.2888257 21.1299716,22.6834753 C21.1299716,22.078125 21.6226326,21.585464 22.2279829,21.585464 Z" id="Shape" fill="#FFFFFF"></path>
                <path d="M11.8420928,21.585464 C12.9003314,21.585464 13.7613636,20.7244318 13.7613636,19.6661932 C13.7613636,18.6077178 12.9003314,17.7466856 11.8420928,17.7466856 C10.7836174,17.7466856 9.92258521,18.6077178 9.92258521,19.6661932 C9.92258521,20.7244318 10.7836174,21.585464 11.8420928,21.585464 Z M11.8420928,18.7163826 C12.365767,18.7163826 12.7916667,19.1425189 12.7916667,19.6661932 C12.7916667,20.1898675 12.365767,20.6157671 11.8420928,20.6157671 C11.3184186,20.6157671 10.8922822,20.1898674 10.8922822,19.6661932 C10.8922822,19.142519 11.3184186,18.7163826 11.8420928,18.7163826 Z" id="Shape" fill="#FFFFFF"></path>
                <path d="M16.3191288,11.6183712 C17.209517,11.6183712 17.9339488,10.8939394 17.9339488,10.0035511 C17.9339488,9.11316286 17.209517,8.38896781 16.3191288,8.38896781 C15.4287405,8.38896781 14.7045455,9.11316286 14.7045455,10.0035511 C14.7045455,10.8939394 15.4287405,11.6183712 16.3191288,11.6183712 Z M16.3191288,9.35866478 C16.6749526,9.35866478 16.9642519,9.64796402 16.9642519,10.0035511 C16.9642519,10.359375 16.6749526,10.6486742 16.3191288,10.6486742 C15.9635417,10.6486742 15.6742424,10.359375 15.6742424,10.0035511 C15.6742424,9.64796402 15.9635417,9.35866478 16.3191288,9.35866478 Z" id="Shape" fill="#FFFFFF"></path>
                <path d="M13.4701705,14.8259943 L14.7073864,15.4869792 C14.7800663,15.5260416 14.858428,15.5442708 14.9353693,15.5442708 C15.1086648,15.5442708 15.2762784,15.4512311 15.3633996,15.2878788 C15.4895833,15.0516098 15.4005682,14.7580493 15.1642992,14.6318656 L13.9270833,13.9708807 C13.6901042,13.8437501 13.3965436,13.9341856 13.2710701,14.1699811 C13.1448864,14.40625 13.2339015,14.6998106 13.4701705,14.8259943 Z" id="Path" fill="#FFFFFF"></path>
                <path d="M19.226089,15.898911 C19.3072917,16.0776515 19.483428,16.1832386 19.6678504,16.1832386 C19.7348485,16.1832386 19.8030303,16.1692708 19.8681344,16.1399148 C20.1117424,16.0291193 20.219697,15.741714 20.1091382,15.4978693 L19.5291193,14.2201704 C19.4183238,13.9765625 19.1311552,13.8693182 18.8870738,13.9791666 C18.6434658,14.0899621 18.5355113,14.3773674 18.64607,14.6212121 L19.226089,15.898911 Z" id="Path" fill="#FFFFFF"></path>
                <path d="M15.8359375,23.4275568 C15.6465436,23.2381629 15.3397254,23.2381629 15.1503314,23.4275568 C14.9609375,23.6169507 14.9609375,23.9237689 15.1503314,24.1131629 L16.1422822,25.1051136 C16.2369792,25.1998106 16.3610322,25.2471591 16.4850852,25.2471591 C16.6091382,25.2471591 16.7331913,25.1998106 16.8278882,25.1051136 C17.0172821,24.9157197 17.0172821,24.6089015 16.8278882,24.4195075 L15.8359375,23.4275568 Z" id="Path" fill="#FFFFFF"></path>
                <path d="M17.7452652,18.9865057 C17.5660512,18.9138258 17.3527462,18.9573864 17.216856,19.0932765 C17.1247632,19.1806345 17.076231,19.3065814 17.076231,19.4325284 C17.076231,19.5634469 17.1247632,19.6896306 17.216856,19.7769886 C17.3089488,19.8690814 17.430161,19.9173769 17.5610795,19.9173769 C17.624053,19.9173769 17.6872632,19.9079072 17.7452651,19.8835227 C17.8035038,19.859375 17.8567708,19.8205492 17.9005681,19.7769886 C17.9926609,19.6896306 18.045928,19.5634469 18.045928,19.4325284 C18.045928,19.3065814 17.9926609,19.1806345 17.9005681,19.0932765 C17.8567708,19.0447443 17.8035038,19.0108901 17.7452652,18.9865057 Z" id="Path" fill="#FFFFFF"></path>
                <path d="M15.9902936,5.67258521 C16.1162405,5.67258521 16.2424242,5.62405299 16.3295455,5.53196019 C16.4216383,5.43986739 16.4751421,5.31392044 16.4751421,5.18773673 C16.4751421,5.06178977 16.4216383,4.93560606 16.3295455,4.84848485 C16.1503314,4.6640625 15.8252841,4.66903408 15.6460701,4.84848485 C15.5537405,4.93560606 15.505445,5.06178977 15.505445,5.18773673 C15.505445,5.31865527 15.5537405,5.43986739 15.6460701,5.53196019 C15.7381629,5.62405304 15.8641099,5.67258521 15.9902936,5.67258521 Z" id="Path" fill="#FFFFFF"></path>
                <path d="M7.72348485,23.4133523 C7.81084281,23.5054451 7.93678977,23.5537406 8.06297348,23.5537406 C8.12594696,23.5537406 8.18892044,23.5442709 8.24715908,23.5198864 C8.31013256,23.4957387 8.36363636,23.4569129 8.40719695,23.4133523 C8.49928975,23.3210227 8.54782196,23.1998106 8.54782196,23.0688921 C8.54782196,22.9429451 8.49928975,22.8169982 8.40719695,22.7296402 C8.36363636,22.681108 8.31013256,22.6472538 8.24715908,22.6228693 C8.0726799,22.5501894 7.85440339,22.59375 7.72348485,22.7296401 C7.63139205,22.8169981 7.57812499,22.9429451 7.57812499,23.068892 C7.57812499,23.1998106 7.63139205,23.3210227 7.72348485,23.4133523 Z" id="Path" fill="#000000"></path>
            </g>
        </g>
    </g>
</svg>